<svg width="160" height="130" viewBox="0 0 160 130" fill="none" xmlns="http://www.w3.org/2000/svg">
<g clip-path="url(#clip0)">
<rect width="160" height="130" rx="20" fill="white"/>
<g filter="url(#filter0_d)">
<path d="M0 20C0 8.9543 8.9543 0 20 0H140C151.046 0 160 8.95431 160 20V110C160 121.046 151.046 130 140 130H20C8.95431 130 0 121.046 0 110V20Z" fill="#B6849F"/>
</g>
<path d="M141.188 82.5156C139.922 93.3438 135.914 101.711 129.164 107.617C122.461 113.477 113.531 116.406 102.375 116.406C90.2812 116.406 80.5781 112.07 73.2656 103.398C66 94.7266 62.3672 83.125 62.3672 68.5938V58.75C62.3672 49.2344 64.0547 40.8672 67.4297 33.6484C70.8516 26.4297 75.6797 20.8984 81.9141 17.0547C88.1484 13.1641 95.3672 11.2188 103.57 11.2188C114.445 11.2188 123.164 14.2656 129.727 20.3594C136.289 26.4062 140.109 34.7969 141.188 45.5312H127.617C126.445 37.375 123.891 31.4688 119.953 27.8125C116.062 24.1562 110.602 22.3281 103.57 22.3281C94.9453 22.3281 88.1719 25.5156 83.25 31.8906C78.375 38.2656 75.9375 47.3359 75.9375 59.1016V69.0156C75.9375 80.125 78.2578 88.9609 82.8984 95.5234C87.5391 102.086 94.0312 105.367 102.375 105.367C109.875 105.367 115.617 103.68 119.602 100.305C123.633 96.8828 126.305 90.9531 127.617 82.5156H141.188Z" fill="#E5E5E5"/>
<path d="M141.188 82.5156L145.16 82.98L145.682 78.5156H141.188V82.5156ZM129.164 107.617L131.797 110.629L131.798 110.627L129.164 107.617ZM73.2656 103.398L70.1995 105.967L70.2077 105.977L73.2656 103.398ZM67.4297 33.6484L63.8152 31.9351L63.8107 31.9447L63.8062 31.9543L67.4297 33.6484ZM81.9141 17.0547L84.0133 20.4596L84.0226 20.4539L84.0318 20.4481L81.9141 17.0547ZM129.727 20.3594L127.005 23.2906L127.01 23.2958L127.016 23.301L129.727 20.3594ZM141.188 45.5312V49.5312H145.609L145.167 45.1315L141.188 45.5312ZM127.617 45.5312L123.658 46.1001L124.151 49.5312H127.617V45.5312ZM119.953 27.8125L117.214 30.7274L117.223 30.7355L117.231 30.7437L119.953 27.8125ZM83.25 31.8906L80.0838 29.4462L80.0782 29.4535L80.0726 29.4608L83.25 31.8906ZM119.602 100.305L122.187 103.357L122.19 103.354L119.602 100.305ZM127.617 82.5156V78.5156H124.191L123.665 81.9008L127.617 82.5156ZM137.215 82.0513C136.038 92.117 132.38 99.488 126.53 104.607L131.798 110.627C139.448 103.934 143.806 94.5705 145.16 82.98L137.215 82.0513ZM126.532 104.606C120.728 109.679 112.817 112.406 102.375 112.406V120.406C114.246 120.406 124.194 117.274 131.797 110.629L126.532 104.606ZM102.375 112.406C91.3713 112.406 82.8205 108.525 76.3236 100.82L70.2077 105.977C78.3357 115.616 89.1912 120.406 102.375 120.406V112.406ZM76.3317 100.83C69.8239 93.0622 66.3672 82.4582 66.3672 68.5938H58.3672C58.3672 83.7918 62.1761 96.3909 70.1995 105.967L76.3317 100.83ZM66.3672 68.5938V58.75H58.3672V68.5938H66.3672ZM66.3672 58.75C66.3672 49.7077 67.9696 41.938 71.0532 35.3426L63.8062 31.9543C60.1397 39.7964 58.3672 48.7611 58.3672 58.75H66.3672ZM71.0442 35.3618C74.1663 28.7754 78.4963 23.861 84.0133 20.4596L79.8148 13.6498C72.863 17.9359 67.5369 24.0839 63.8152 31.9351L71.0442 35.3618ZM84.0318 20.4481C89.5589 16.9988 96.0263 15.2188 103.57 15.2188V7.21875C94.7081 7.21875 86.738 9.32928 79.7964 13.6613L84.0318 20.4481ZM103.57 15.2188C113.664 15.2188 121.334 18.0247 127.005 23.2906L132.448 17.4282C124.994 10.5065 115.227 7.21875 103.57 7.21875V15.2188ZM127.016 23.301C132.715 28.5522 136.206 35.9572 137.208 45.931L145.167 45.1315C144.013 33.6366 139.863 24.2603 132.437 17.4177L127.016 23.301ZM141.188 41.5312H127.617V49.5312H141.188V41.5312ZM131.577 44.9624C130.341 36.3598 127.558 29.416 122.675 24.8813L117.231 30.7437C120.223 33.5215 122.55 38.3902 123.658 46.1001L131.577 44.9624ZM122.692 24.8976C117.849 20.3463 111.288 18.3281 103.57 18.3281V26.3281C109.915 26.3281 114.276 27.9662 117.214 30.7274L122.692 24.8976ZM103.57 18.3281C93.8076 18.3281 85.8232 22.0124 80.0838 29.4462L86.4162 34.3351C90.5206 29.0189 96.083 26.3281 103.57 26.3281V18.3281ZM80.0726 29.4608C74.4663 36.7921 71.9375 46.8511 71.9375 59.1016H79.9375C79.9375 47.8208 82.2837 39.7391 86.4274 34.3204L80.0726 29.4608ZM71.9375 59.1016V69.0156H79.9375V59.1016H71.9375ZM71.9375 69.0156C71.9375 80.6444 74.3629 90.381 79.6325 97.8329L86.1644 93.214C82.1527 87.5409 79.9375 79.6056 79.9375 69.0156H71.9375ZM79.6325 97.8329C85.0561 105.503 92.7914 109.367 102.375 109.367V101.367C95.2711 101.367 90.022 98.6693 86.1644 93.214L79.6325 97.8329ZM102.375 109.367C110.416 109.367 117.222 107.563 122.187 103.357L117.016 97.2525C114.013 99.7965 109.334 101.367 102.375 101.367V109.367ZM122.19 103.354C127.287 99.0274 130.195 91.9691 131.57 83.1305L123.665 81.9008C122.415 89.9371 119.978 94.7382 117.013 97.2552L122.19 103.354ZM127.617 86.5156H141.188V78.5156H127.617V86.5156Z" fill="#E5E5E5"/>
<g filter="url(#filter1_d)">
<path d="M99.4688 101.57C96 106.539 91.1484 110.266 84.9141 112.75C78.7266 115.188 71.5078 116.406 63.2578 116.406C54.9141 116.406 47.5078 114.461 41.0391 110.57C34.5703 106.633 29.5547 101.055 25.9922 93.8359C22.4766 86.6172 20.6719 78.25 20.5781 68.7344V59.8047C20.5781 44.3828 24.1641 32.4297 31.3359 23.9453C38.5547 15.4609 48.6797 11.2188 61.7109 11.2188C72.3984 11.2188 81 13.9609 87.5156 19.4453C94.0312 24.8828 98.0156 32.6172 99.4688 42.6484H85.9688C83.4375 29.1016 75.375 22.3281 61.7812 22.3281C52.7344 22.3281 45.8672 25.5156 41.1797 31.8906C36.5391 38.2188 34.1953 47.4062 34.1484 59.4531V67.8203C34.1484 79.3047 36.7734 88.4453 42.0234 95.2422C47.2734 101.992 54.375 105.367 63.3281 105.367C68.3906 105.367 72.8203 104.805 76.6172 103.68C80.4141 102.555 83.5547 100.656 86.0391 97.9844V74.9922H62.3438V64.0234H99.4688V101.57Z" fill="#EABDB5"/>
<path d="M99.4688 101.57L101.929 103.288L102.469 102.514V101.57H99.4688ZM84.9141 112.75L86.0136 115.541L86.0246 115.537L84.9141 112.75ZM41.0391 110.57L39.4792 113.133L39.486 113.137L39.4928 113.141L41.0391 110.57ZM25.9922 93.8359L23.295 95.1495L23.2985 95.1565L23.302 95.1636L25.9922 93.8359ZM20.5781 68.7344H17.5781V68.7492L17.5783 68.7639L20.5781 68.7344ZM31.3359 23.9453L29.051 22.0013L29.0448 22.0086L31.3359 23.9453ZM87.5156 19.4453L85.5837 21.7405L85.5934 21.7486L87.5156 19.4453ZM99.4688 42.6484V45.6484H102.935L102.438 42.2183L99.4688 42.6484ZM85.9688 42.6484L83.0198 43.1995L83.4774 45.6484H85.9688V42.6484ZM41.1797 31.8906L38.7627 30.1135L38.7605 30.1165L41.1797 31.8906ZM34.1484 59.4531L31.1484 59.4415V59.4531H34.1484ZM42.0234 95.2422L39.6492 97.0761L39.6554 97.084L42.0234 95.2422ZM86.0391 97.9844L88.2361 100.027L89.0391 99.1636V97.9844H86.0391ZM86.0391 74.9922H89.0391V71.9922H86.0391V74.9922ZM62.3438 74.9922H59.3438V77.9922H62.3438V74.9922ZM62.3438 64.0234V61.0234H59.3438V64.0234H62.3438ZM99.4688 64.0234H102.469V61.0234H99.4688V64.0234ZM97.0089 99.853C93.9113 104.29 89.554 107.672 83.8035 109.963L86.0246 115.537C92.7428 112.86 98.0887 108.788 101.929 103.288L97.0089 99.853ZM83.8145 109.959C78.0502 112.23 71.2189 113.406 63.2578 113.406V119.406C71.7968 119.406 79.4029 118.145 86.0136 115.541L83.8145 109.959ZM63.2578 113.406C55.3998 113.406 48.539 111.58 42.5853 107.999L39.4928 113.141C46.4766 117.342 54.4283 119.406 63.2578 119.406V113.406ZM42.5989 108.008C36.6476 104.385 32.0096 99.2501 28.6824 92.5083L23.302 95.1636C27.0998 102.859 32.493 108.88 39.4792 113.133L42.5989 108.008ZM28.6893 92.5224C25.4015 85.7713 23.6681 77.8569 23.578 68.7048L17.5783 68.7639C17.6756 78.6431 19.5517 87.4631 23.295 95.1495L28.6893 92.5224ZM23.5781 68.7344V59.8047H17.5781V68.7344H23.5781ZM23.5781 59.8047C23.5781 44.8184 27.063 33.6474 33.6271 25.882L29.0448 22.0086C21.2652 31.212 17.5781 43.9473 17.5781 59.8047H23.5781ZM33.6208 25.8894C40.1704 18.1915 49.3938 14.2188 61.7109 14.2188V8.21875C47.9656 8.21875 36.939 12.7304 29.0511 22.0013L33.6208 25.8894ZM61.7109 14.2188C71.8769 14.2188 79.7356 16.8179 85.5837 21.7405L89.4475 17.1502C82.2644 11.104 72.92 8.21875 61.7109 8.21875V14.2188ZM85.5934 21.7486C91.4345 26.6232 95.1309 33.6293 96.4997 43.0785L102.438 42.2183C100.9 31.6051 96.628 23.1424 89.4378 17.142L85.5934 21.7486ZM99.4688 39.6484H85.9688V45.6484H99.4688V39.6484ZM88.9177 42.0974C87.5644 34.8546 84.661 29.0664 79.9532 25.1112C75.2403 21.1519 69.0748 19.3281 61.7812 19.3281V25.3281C68.0814 25.3281 72.744 26.8911 76.0937 29.7052C79.4483 32.5235 81.8419 36.8954 83.0198 43.1995L88.9177 42.0974ZM61.7812 19.3281C51.9367 19.3281 44.1023 22.8516 38.7627 30.1135L43.5966 33.6678C47.632 28.1796 53.532 25.3281 61.7812 25.3281V19.3281ZM38.7605 30.1165C33.5925 37.1638 31.1966 47.0789 31.1485 59.4415L37.1484 59.4648C37.1941 47.7336 39.4857 39.2737 43.5989 33.6647L38.7605 30.1165ZM31.1484 59.4531V67.8203H37.1484V59.4531H31.1484ZM31.1484 67.8203C31.1484 79.7456 33.8756 89.6013 39.6492 97.0761L44.3977 93.4083C39.6712 87.2893 37.1484 78.8638 37.1484 67.8203H31.1484ZM39.6554 97.084C45.5041 104.604 53.4998 108.367 63.3281 108.367V102.367C55.2502 102.367 49.0428 99.3806 44.3915 93.4004L39.6554 97.084ZM63.3281 108.367C68.6032 108.367 73.3314 107.782 77.4695 106.556L75.7649 100.803C72.3092 101.827 68.1781 102.367 63.3281 102.367V108.367ZM77.4695 106.556C81.7357 105.292 85.3551 103.126 88.2361 100.027L83.8421 95.9415C81.7542 98.1869 79.0925 99.8174 75.7649 100.803L77.4695 106.556ZM89.0391 97.9844V74.9922H83.0391V97.9844H89.0391ZM86.0391 71.9922H62.3438V77.9922H86.0391V71.9922ZM65.3438 74.9922V64.0234H59.3438V74.9922H65.3438ZM62.3438 67.0234H99.4688V61.0234H62.3438V67.0234ZM96.4688 64.0234V101.57H102.469V64.0234H96.4688Z" fill="#EABDB5"/>
</g>
</g>
<defs>
<filter id="filter0_d" x="-4" y="0" width="168" height="138" filterUnits="userSpaceOnUse" color-interpolation-filters="sRGB">
<feFlood flood-opacity="0" result="BackgroundImageFix"/>
<feColorMatrix in="SourceAlpha" type="matrix" values="0 0 0 0 0 0 0 0 0 0 0 0 0 0 0 0 0 0 127 0"/>
<feOffset dy="4"/>
<feGaussianBlur stdDeviation="2"/>
<feColorMatrix type="matrix" values="0 0 0 0 0 0 0 0 0 0 0 0 0 0 0 0 0 0 0.25 0"/>
<feBlend mode="normal" in2="BackgroundImageFix" result="effect1_dropShadow"/>
<feBlend mode="normal" in="SourceGraphic" in2="effect1_dropShadow" result="shape"/>
</filter>
<filter id="filter1_d" x="13.5781" y="8.21875" width="93.3565" height="119.188" filterUnits="userSpaceOnUse" color-interpolation-filters="sRGB">
<feFlood flood-opacity="0" result="BackgroundImageFix"/>
<feColorMatrix in="SourceAlpha" type="matrix" values="0 0 0 0 0 0 0 0 0 0 0 0 0 0 0 0 0 0 127 0"/>
<feOffset dy="4"/>
<feGaussianBlur stdDeviation="2"/>
<feColorMatrix type="matrix" values="0 0 0 0 0 0 0 0 0 0 0 0 0 0 0 0 0 0 0.25 0"/>
<feBlend mode="normal" in2="BackgroundImageFix" result="effect1_dropShadow"/>
<feBlend mode="normal" in="SourceGraphic" in2="effect1_dropShadow" result="shape"/>
</filter>
<clipPath id="clip0">
<rect width="160" height="130" rx="20" fill="white"/>
</clipPath>
</defs>
</svg>
